<svg width="28" height="28" viewBox="0 0 28 28" fill="none" xmlns="http://www.w3.org/2000/svg">
<path fill-rule="evenodd" clip-rule="evenodd" d="M4 9C4 5.68629 6.68629 3 10 3H18C21.3137 3 24 5.68629 24 9V19C24 22.3137 21.3137 25 18 25H10C6.68629 25 4 22.3137 4 19V9ZM5.71429 9.10975C5.71429 6.62447 7.729 4.60976 10.2143 4.60976H17.7857C20.271 4.60976 22.2857 6.62448 22.2857 9.10976V18.8902C22.2857 21.3755 20.271 23.3902 17.7857 23.3902H10.2143C7.729 23.3902 5.71429 21.3755 5.71429 18.8902V9.10975ZM11.2195 6.7561C9.44142 6.7561 8 8.19752 8 9.97561C8 11.7537 9.44142 13.1951 11.2195 13.1951H16.7805C18.5586 13.1951 20 11.7537 20 9.97561C20 8.19752 18.5586 6.7561 16.7805 6.7561H11.2195Z" fill="#242A37"/>
</svg>
