<svg width="28" height="28" viewBox="0 0 28 28" fill="none" xmlns="http://www.w3.org/2000/svg">
<path fill-rule="evenodd" clip-rule="evenodd" d="M10 3C6.68629 3 4 5.68629 4 9V25H18C21.3137 25 24 22.3137 24 19V9C24 5.68629 21.3137 3 18 3H10ZM10.2143 4.60976C7.729 4.60976 5.71429 6.62447 5.71429 9.10975V23.3902H17.7857C20.271 23.3902 22.2857 21.3755 22.2857 18.8902V9.10976C22.2857 6.62448 20.271 4.60976 17.7857 4.60976H10.2143ZM15.9767 16.8605H9.93023C9.41648 16.8605 9 16.444 9 15.9302C9 15.4165 9.41648 15 9.93023 15H15.9767C16.4905 15 16.907 15.4165 16.907 15.9302C16.907 16.444 16.4905 16.8605 15.9767 16.8605ZM9.93023 12.8605H18.3023C18.8161 12.8605 19.2326 12.444 19.2326 11.9302C19.2326 11.4165 18.8161 11 18.3023 11H9.93023C9.41648 11 9 11.4165 9 11.9302C9 12.444 9.41648 12.8605 9.93023 12.8605Z" fill="#1D1D26"/>
</svg>
