<svg width="28" height="28" viewBox="0 0 28 28" fill="none" xmlns="http://www.w3.org/2000/svg">
<path fill-rule="evenodd" clip-rule="evenodd" d="M21.5 2C19.567 2 18 3.567 18 5.5C18 7.433 19.567 9 21.5 9C23.433 9 25 7.433 25 5.5C25 3.567 23.433 2 21.5 2ZM16 3.21951C16 3.14574 16.0025 3.07254 16.0074 3H10C6.68629 3 4 5.68629 4 9V19C4 22.3137 6.68629 25 10 25H18C21.3137 25 24 22.3137 24 19V10.9926C23.9275 10.9975 23.8543 11 23.7805 11H22.2857V18.8902C22.2857 21.3755 20.271 23.3902 17.7857 23.3902H10.2143C7.729 23.3902 5.71429 21.3755 5.71429 18.8902V9.10975C5.71429 6.62447 7.729 4.60976 10.2143 4.60976H16V3.21951Z" fill="#1D1D26"/>
</svg>
