<svg width="28" height="28" viewBox="0 0 28 28" fill="none" xmlns="http://www.w3.org/2000/svg">
<path fill-rule="evenodd" clip-rule="evenodd" d="M3.14321 14C3.14321 14.6092 3.63841 15.1044 4.24764 15.1044L12.8956 15.1044V23.7524C12.8956 24.3616 13.3908 24.8568 14 24.8568C14.6092 24.8568 15.1044 24.3616 15.1044 23.7524V15.1044L23.7524 15.1044C24.3616 15.1044 24.8568 14.6092 24.8568 14C24.8568 13.3908 24.3616 12.8956 23.7524 12.8956L15.1044 12.8956L15.1044 4.24764C15.1044 3.63841 14.6092 3.14321 14 3.14321C13.3908 3.14321 12.8956 3.63841 12.8956 4.24764L12.8956 12.8956L4.24764 12.8956C3.63841 12.8956 3.14321 13.3908 3.14321 14Z" fill="white"/>
<mask id="mask0_0_1034" style="mask-type:alpha" maskUnits="userSpaceOnUse" x="3" y="3" width="22" height="22">
<path fill-rule="evenodd" clip-rule="evenodd" d="M3.14321 14C3.14321 14.6092 3.63841 15.1044 4.24764 15.1044L12.8956 15.1044V23.7524C12.8956 24.3616 13.3908 24.8568 14 24.8568C14.6092 24.8568 15.1044 24.3616 15.1044 23.7524V15.1044L23.7524 15.1044C24.3616 15.1044 24.8568 14.6092 24.8568 14C24.8568 13.3908 24.3616 12.8956 23.7524 12.8956L15.1044 12.8956L15.1044 4.24764C15.1044 3.63841 14.6092 3.14321 14 3.14321C13.3908 3.14321 12.8956 3.63841 12.8956 4.24764L12.8956 12.8956L4.24764 12.8956C3.63841 12.8956 3.14321 13.3908 3.14321 14Z" fill="white"/>
</mask>
<g mask="url(#mask0_0_1034)">
</g>
</svg>
