<svg width="28" height="28" viewBox="0 0 28 28" fill="none" xmlns="http://www.w3.org/2000/svg">
<path fill-rule="evenodd" clip-rule="evenodd" d="M9.81457 2.75338C10.1941 2.37066 10.8094 2.35992 11.2021 2.72917L14.0939 5.44859L17.4952 3.53626C17.9633 3.27305 18.556 3.4318 18.8299 3.89378C19.1128 4.37103 18.9477 4.98762 18.4641 5.25953L16.3113 6.46985H19C22.3137 6.46985 25 9.15614 25 12.4698V18.4698C25 21.7836 22.3137 24.4698 19 24.4698H9C5.68629 24.4698 3 21.7836 3 18.4698V12.4698C3 9.15614 5.68629 6.46985 9 6.46985H12.2763L9.83943 4.1782C9.43177 3.79484 9.42053 3.15074 9.81457 2.75338ZM9.76689 7.99994C6.84233 7.99994 4.48157 10.3897 4.51728 13.314L4.57223 17.814C4.60732 20.6883 6.94734 22.9999 9.82183 22.9999H18.2067C21.1312 22.9999 23.492 20.6102 23.4563 17.6858L23.4013 13.1858C23.3662 10.3116 21.0262 7.99994 18.1517 7.99994H9.76689ZM16 15.4001C16 15.9138 15.5786 16.3303 15.0588 16.3303H8.94118C8.42138 16.3303 8 15.9138 8 15.4001C8 14.8863 8.42138 14.4698 8.94118 14.4698H12.1388C12.0514 14.3177 12 14.1314 12 13.9302C12 13.4164 12.3351 12.9999 12.7484 12.9999H19.4841C19.8975 12.9999 20.2326 13.4164 20.2326 13.9302C20.2326 14.4439 19.8975 14.8604 19.4841 14.8604H15.8255C15.9354 15.0126 16 15.1989 16 15.4001Z" fill="#242A37"/>
</svg>
